HIERARCHY
ROOT Hips
{
	OFFSET 0.000000 0.000000 0.000000
	CHANNELS 6 Xposition Yposition Zposition Yrotation Xrotation Zrotation 
	JOINT LeftHip
	{
		OFFSET 0.094196 0.000343 -0.000038
		CHANNELS 3 Yrotation Xrotation Zrotation
		JOINT LeftKnee
		{
			OFFSET 0.000000 -0.468901 0.000041
			CHANNELS 3 Yrotation Xrotation Zrotation
			JOINT LeftAnkle
			{
				OFFSET 0.000000 -0.397674 0.000438
				CHANNELS 3 Yrotation Xrotation Zrotation
				JOINT LeftToe
				{
					OFFSET 0.000000 -0.090712 0.195501
					CHANNELS 3 Yrotation Xrotation Zrotation
					End Site
					{
						OFFSET 0.000000 0.000000 0.000000
					}
				}
			}
		}
	}
	JOINT RightHip
	{
		OFFSET -0.094196 0.000364 -0.000040
		CHANNELS 3 Yrotation Xrotation Zrotation
		JOINT RightKnee
		{
			OFFSET 0.000000 -0.468901 0.000041
			CHANNELS 3 Yrotation Xrotation Zrotation
			JOINT RightAnkle
			{
				OFFSET 0.000000 -0.397674 0.000438
				CHANNELS 3 Yrotation Xrotation Zrotation
				JOINT RightToe
				{
					OFFSET 0.000000 -0.090712 0.195501
					CHANNELS 3 Yrotation Xrotation Zrotation
					End Site
					{
						OFFSET 0.000000 0.000000 0.000000
					}
				}
			}
		}
	}
	JOINT Chest
	{
		OFFSET 0.000000 0.113860 -0.012651
		CHANNELS 3 Yrotation Xrotation Zrotation
		JOINT Chest3
		{
			OFFSET 0.000249 0.210437 -0.011343
			CHANNELS 3 Yrotation Xrotation Zrotation
			JOINT Chest4
			{
				OFFSET 0.000000 0.100637 -0.000145
				CHANNELS 3 Yrotation Xrotation Zrotation
				JOINT Neck
				{
					OFFSET 0.000000 0.138831 0.000000
					CHANNELS 3 Yrotation Xrotation Zrotation
					JOINT Head
					{
						OFFSET 0.000000 0.095420 0.000176
						CHANNELS 3 Yrotation Xrotation Zrotation
						End Site
						{
							OFFSET 0.000000 0.000000 0.000000
						}
					}
				}
				JOINT LeftCollar
				{
					OFFSET 0.029338 0.077908 0.000000
					CHANNELS 3 Yrotation Xrotation Zrotation
					JOINT LeftShoulder
					{
						OFFSET 0.140442 0.000000 0.000000
						CHANNELS 3 Yrotation Xrotation Zrotation
						JOINT LeftElbow
						{
							OFFSET 0.303173 0.000000 0.000000
							CHANNELS 3 Yrotation Xrotation Zrotation
							JOINT LeftWrist
							{
								OFFSET 0.261212 0.000000 0.000049
								CHANNELS 3 Yrotation Xrotation Zrotation
								End Site
								{
									OFFSET 0.000000 0.000000 0.000000
								}
							}
						}
					}
				}
				JOINT RightCollar
				{
					OFFSET -0.029338 0.077908 0.000000
					CHANNELS 3 Yrotation Xrotation Zrotation
					JOINT RightShoulder
					{
						OFFSET -0.140442 0.000000 0.000000
						CHANNELS 3 Yrotation Xrotation Zrotation
						JOINT RightElbow
						{
							OFFSET -0.303173 0.000000 0.000000
							CHANNELS 3 Yrotation Xrotation Zrotation
							JOINT RightWrist
							{
								OFFSET -0.261212 0.000000 0.000049
								CHANNELS 3 Yrotation Xrotation Zrotation
								End Site
								{
									OFFSET 0.000000 0.000000 0.000000
								}
							}
						}
					}
				}
			}
		}
	}
}
MOTION
Frames: 17
Frame Time: 0.016667
0.000000 0.000000 0.000000 200.760247 5.713029 0.404425 4.364148 356.569019 1.942385 0.009121 6.159599 359.933961 5.879293 352.258120 357.535539 359.967009 1.455310 359.866113 355.233408 357.856281 359.462362 0.477420 5.979230 358.734350 352.855436 351.078980 1.739472 0.236143 0.708398 359.960537 0.329511 359.050586 359.677687 0.044123 353.182014 359.779459 0.773192 5.796448 0.316510 359.026838 14.438236 359.960583 358.530995 351.104837 0.550976 355.763457 6.965427 347.135013 358.363433 344.732626 285.640339 357.926070 27.810097 8.063862 359.590358 7.288535 3.041995 6.054447 3.183051 12.606564 0.504061 344.754273 74.787809 351.220003 17.013994 351.342180 4.019606 8.976225 1.895268 
0.000000 0.000000 0.000000 200.755967 5.714552 0.403200 4.365756 356.570914 1.944979 0.009564 6.159216 359.934433 5.882598 352.254014 357.534234 359.963629 1.457652 359.865012 355.235045 357.857320 359.464948 0.478463 5.979474 358.734519 352.858580 351.076041 1.738545 0.232477 0.709067 359.958882 0.329545 359.049527 359.677850 0.044080 353.181108 359.779612 0.775148 5.795991 0.316444 359.022875 14.442852 359.965795 358.518031 351.128654 0.562515 355.762196 6.966087 347.134995 358.359667 344.729523 285.642561 357.925378 27.825994 8.063387 359.594468 7.292465 3.043211 6.050190 3.182226 12.602923 0.499477 344.761002 74.787973 351.237922 17.021431 351.344282 4.026629 8.983071 1.896596 
0.000000 0.000000 0.000000 200.750689 5.715718 0.401626 4.367704 356.572997 1.947866 0.010050 6.159373 359.934914 5.886391 352.249534 357.532719 359.961838 1.459289 359.864509 355.236948 357.858245 359.467686 0.479715 5.980530 358.734725 352.862539 351.072800 1.737930 0.229785 0.709138 359.956915 0.329571 359.049394 359.678016 0.044032 353.180988 359.779768 0.777253 5.795928 0.316612 359.018095 14.446929 359.971376 358.508721 351.149433 0.577206 355.760791 6.966136 347.134681 358.356924 344.726329 285.645634 357.923954 27.839276 8.062028 359.595615 7.295033 3.043997 6.046452 3.182216 12.599133 0.496850 344.765909 74.787881 351.256487 17.028958 351.346513 4.033279 8.987364 1.895771 
0.000000 0.000000 0.000000 200.746134 5.717438 0.400567 4.369531 356.574303 1.950109 0.010490 6.159278 359.935214 5.889693 352.245599 357.531290 359.962937 1.460859 359.865628 355.238600 357.858687 359.469878 0.480763 5.980829 358.734861 352.865836 351.070081 1.737277 0.230528 0.709837 359.955967 0.329481 359.050351 359.678732 0.043891 353.181778 359.780404 0.778333 5.796189 0.317016 359.013813 14.448878 359.975021 358.502876 351.166480 0.594158 355.758870 6.966108 347.134066 358.353672 344.722303 285.647188 357.923689 27.846711 8.061172 359.594322 7.296263 3.044683 6.042992 3.181918 12.594924 0.495655 344.769288 74.786191 351.274842 17.035965 351.349404 4.036465 8.989109 1.892433 
0.000000 0.000000 0.000000 200.743024 5.720172 0.400528 4.371133 356.573664 1.951122 0.010818 6.159993 359.935152 5.892030 352.241804 357.530052 359.966345 1.462742 359.868759 355.239727 357.857646 359.471009 0.481338 5.981194 358.734886 352.867868 351.067341 1.736503 0.234518 0.711865 359.956711 0.329169 359.052787 359.680481 0.043568 353.183815 359.781979 0.777212 5.796820 0.317750 359.010288 14.447082 359.974991 358.501459 351.178626 0.610705 355.756009 6.965958 347.132762 358.348803 344.716751 285.645938 357.926267 27.844180 8.061840 359.591575 7.297262 3.045568 6.040071 3.180933 12.589916 0.496823 344.770206 74.781663 351.292408 17.043528 351.352883 4.034529 8.987942 1.889622 
0.000000 0.000000 0.000000 200.740579 5.723484 0.400974 4.372594 356.572323 1.951497 0.011103 6.160295 359.934922 5.893908 352.238648 357.528900 359.970038 1.464489 359.872696 355.240564 357.855944 359.471568 0.481710 5.981191 358.734880 352.869281 351.064920 1.735705 0.238839 0.714231 359.958152 0.328734 359.056301 359.682787 0.043152 353.186753 359.784045 0.774708 5.797811 0.318657 359.007446 14.443107 359.973021 358.503829 351.183545 0.624211 355.752893 6.965461 347.131186 358.343487 344.710673 285.643074 357.930107 27.835736 8.063135 359.589434 7.297082 3.045931 6.037539 3.179769 12.584514 0.499703 344.769279 74.775632 351.309307 17.050508 351.356771 4.028192 8.986129 1.889925 
0.000000 0.000000 0.000000 200.738389 5.726931 0.401251 4.373984 356.570654 1.952094 0.011386 6.160883 359.934706 5.895569 352.235638 357.527659 359.972672 1.465620 359.876029 355.241244 357.854063 359.472281 0.482132 5.981339 358.734987 352.870633 351.062822 1.735076 0.241366 0.715688 359.958965 0.328397 359.059901 359.684627 0.042838 353.189769 359.785693 0.772608 5.798960 0.319475 359.006143 14.440299 359.972064 358.507341 351.180134 0.632976 355.750729 6.964822 347.130380 358.339438 344.705693 285.639847 357.932518 27.830167 8.063820 359.589903 7.294602 3.044962 6.035062 3.178610 12.580013 0.501436 344.768844 74.770381 351.325063 17.052331 351.361592 4.021009 8.987701 1.892851 
0.000000 0.000000 0.000000 200.736480 5.730658 0.400645 4.375107 356.568922 1.953637 0.011754 6.161245 359.934688 5.896974 352.233086 357.526281 359.973997 1.466223 359.877760 355.241573 357.852237 359.473780 0.482808 5.981454 358.735418 352.871950 351.061323 1.734927 0.241909 0.715827 359.957907 0.328182 359.062379 359.686012 0.042611 353.191848 359.786927 0.771426 5.799941 0.320008 359.007218 14.442313 359.972768 358.510769 351.169845 0.636699 355.750342 6.964694 347.130755 358.337531 344.703125 285.635712 357.933517 27.833965 8.063567 359.592873 7.290489 3.042564 6.032379 3.176910 12.577283 0.499546 344.771185 74.766434 351.338743 17.047787 351.367487 4.015648 8.992170 1.896147 
0.000000 0.000000 0.000000 200.734761 5.734504 0.399872 4.376115 356.567219 1.955386 0.012138 6.161091 359.934718 5.898211 352.231120 357.524842 359.974013 1.466305 359.878684 355.241745 357.850221 359.475437 0.483539 5.981767 358.735956 352.873207 351.060134 1.734945 0.241100 0.715151 359.956171 0.328062 359.064948 359.686934 0.042486 353.194006 359.787746 0.770412 5.801090 0.320417 359.009936 14.445503 359.974485 358.515578 351.157467 0.636472 355.750896 6.964377 347.131812 358.336763 344.701938 285.631320 357.933007 27.840658 8.062880 359.596495 7.290588 3.038944 6.029799 3.174853 12.575483 0.496320 344.774304 74.763224 351.351339 17.038336 351.374428 4.012417 8.994245 1.897985 
0.000000 0.000000 0.000000 200.732414 5.737569 0.400491 4.377614 356.565757 1.956036 0.012327 6.161444 359.934451 5.899750 352.229001 357.523281 359.972625 1.465361 359.880236 355.242542 357.848137 359.476031 0.484003 5.982436 358.736131 352.874863 351.058982 1.734314 0.238914 0.713996 359.956206 0.328188 359.070110 359.686341 0.042711 353.198417 359.787201 0.769588 5.803249 0.321102 359.012702 14.442138 359.978292 358.522324 351.147256 0.634603 355.750757 6.962239 347.133077 358.335727 344.699914 285.629827 357.928761 27.838757 8.061713 359.599155 7.297619 3.034770 6.027424 3.173676 12.572900 0.495542 344.774547 74.761482 351.366463 17.024168 351.382875 4.010254 8.991132 1.897398 
0.000000 0.000000 0.000000 200.727996 5.739360 0.403801 4.380392 356.564161 1.954462 0.012221 6.163931 359.933537 5.902321 352.225707 357.521464 359.969832 1.463173 359.883565 355.244786 357.845857 359.474500 0.484013 5.983314 358.735545 352.877720 351.058200 1.732486 0.235065 0.712686 359.959651 0.328652 359.079125 359.683590 0.043458 353.206171 359.784702 0.770324 5.806923 0.322112 359.016623 14.428940 359.983342 358.527322 351.138434 0.635785 355.748902 6.957515 347.134633 358.333518 344.695232 285.633314 357.918807 27.819600 8.059412 359.600674 7.307603 3.031619 6.025613 3.174625 12.568852 0.499532 344.768605 74.761872 351.384392 17.003333 351.392614 4.007468 8.985692 1.894263 
0.000000 0.000000 0.000000 200.722928 5.740347 0.408515 4.383665 356.562813 1.951779 0.011925 6.166875 359.932325 5.905184 352.222286 357.519531 359.968240 1.460276 359.887149 355.247678 357.843679 359.471909 0.483757 5.984171 358.734577 352.880957 351.057665 1.729998 0.231949 0.711347 359.964486 0.329351 359.090768 359.679343 0.044552 353.216202 359.780853 0.771843 5.811544 0.323413 359.020296 14.409122 359.990486 358.531593 351.126796 0.639118 355.745889 6.951217 347.136355 358.331124 344.688857 285.639812 357.905663 27.791013 8.056089 359.601660 7.307039 3.032362 6.023907 3.176983 12.563984 0.506119 344.759439 74.763870 351.404631 16.977461 351.403581 4.003131 8.982547 1.888757 
0.000000 0.000000 0.000000 200.720865 5.740988 0.412300 4.385838 356.561762 1.950105 0.011487 6.169146 359.931419 5.906438 352.219579 357.517716 359.970808 1.457359 359.888545 355.249500 357.842440 359.470312 0.483529 5.984948 358.733913 352.882560 351.056536 1.727653 0.232831 0.709940 359.967548 0.330134 359.103888 359.674567 0.045727 353.227532 359.776529 0.771206 5.816342 0.325191 359.018223 14.384725 0.003274 358.538657 351.108473 0.641115 355.742400 6.944412 347.137180 358.329619 344.682695 285.646782 357.894441 27.766201 8.053202 359.601852 7.290570 3.038477 6.021745 3.179246 12.559253 0.512542 344.752295 74.765895 351.428477 16.951384 351.416724 3.999440 8.982147 1.881214 
0.000000 0.000000 0.000000 200.723783 5.740591 0.414362 4.386205 356.562117 1.950384 0.010778 6.169617 359.931142 5.905173 352.218480 357.515983 359.976912 1.453956 359.886985 355.249473 357.843185 359.470557 0.483404 5.986216 358.733804 352.881483 351.053886 1.725648 0.237828 0.707827 359.967945 0.331030 359.119511 359.668946 0.047035 353.241073 359.771440 0.767218 5.821536 0.327731 359.006723 14.355216 0.024927 358.542469 351.078029 0.646276 355.738185 6.936801 347.136494 358.328384 344.676936 285.654483 357.886882 27.753575 8.051922 359.600842 7.267094 3.048693 6.018750 3.181880 12.554817 0.518798 344.748988 74.767720 351.460524 16.929019 351.433898 4.001718 8.979750 1.870663 
0.000000 0.000000 0.000000 200.729701 5.739842 0.415492 4.385434 356.562841 1.951650 0.009941 6.169265 359.931195 5.902322 352.218157 357.514421 359.982199 1.451211 359.883899 355.248360 357.844926 359.471801 0.483311 5.987329 358.734024 352.878792 351.050666 1.723765 0.243230 0.705963 359.966668 0.331988 359.136334 359.662994 0.048368 353.255664 359.766045 0.761043 5.826440 0.330703 358.990127 14.321341 0.051656 358.525852 351.035479 0.668015 355.732614 6.928776 347.134243 358.325377 344.672177 285.662955 357.884789 27.743016 8.053641 359.597080 7.254918 3.058080 6.016424 3.185765 12.550681 0.525963 344.747709 74.768774 351.496615 16.904314 351.453832 4.014192 8.976270 1.858015 
0.000000 0.000000 0.000000 200.736313 5.741470 0.415834 4.383886 356.561493 1.953099 0.009445 6.168392 359.931347 5.898867 352.217833 357.513544 359.983754 1.451971 359.880331 355.246704 357.844692 359.473466 0.483286 5.987968 358.734610 352.875717 351.048161 1.722274 0.246388 0.706302 359.963685 0.332793 359.150468 359.658515 0.049346 353.267908 359.761966 0.755242 5.829823 0.333562 358.972377 14.286821 0.077815 358.478774 350.984482 0.714202 355.727958 6.921825 347.131211 358.322382 344.670429 285.668876 357.885384 27.725908 8.056532 359.592851 7.259738 3.062076 6.013299 3.185759 12.546407 0.527701 344.751472 74.768827 351.529609 16.872851 351.474220 4.033058 8.977110 1.846812 
0.000000 0.000000 0.000000 200.743838 5.747274 0.414939 4.381152 356.556259 1.954861 0.009529 6.167113 359.931610 5.894414 352.217225 357.513712 359.982598 1.457710 359.876561 355.244230 357.840240 359.475963 0.483358 5.989147 358.735803 352.872181 351.046407 1.721259 0.248062 0.709510 359.958691 0.333476 359.159917 359.655827 0.049890 353.276053 359.759507 0.750111 5.830825 0.336007 358.953818 14.251623 0.103592 358.407066 350.929107 0.781604 355.724504 6.917145 347.127783 358.319962 344.672146 285.670769 357.890650 27.698099 8.060911 359.589009 7.269499 3.060817 6.008775 3.179149 12.542068 0.520638 344.762638 74.768305 351.555222 16.825308 351.495045 4.050954 8.985565 1.841169 
